<svg width="220" height="60" viewBox="0 0 220 60" fill="none" xmlns="http://www.w3.org/2000/svg">
<path d="M85.4979 27.8976L81.7607 22.996C81.5802 22.7613 81.4899 22.4724 81.4899 22.1294C81.4899 21.8225 81.5802 21.5517 81.7607 21.317L85.0104 16.9841C85.4076 16.4244 85.8951 16.1445 86.4728 16.1445C86.9241 16.1445 87.2852 16.28 87.556 16.5508C87.8268 16.8216 87.9622 17.1646 87.9622 17.5798C87.9622 17.9409 87.8449 18.2659 87.6102 18.5547L84.8479 21.9128L88.1789 26.1916C88.4316 26.5526 88.558 26.8957 88.558 27.2206C88.558 27.6539 88.4045 28.015 88.0976 28.3039C87.8088 28.5927 87.4477 28.7372 87.0144 28.7372C86.4006 28.7372 85.8951 28.4573 85.4979 27.8976ZM81.0837 11.0804V27.2206C81.0837 27.6359 80.9302 27.9969 80.6233 28.3039C80.3344 28.5927 79.9734 28.7372 79.5401 28.7372C79.0887 28.7372 78.7096 28.5927 78.4027 28.3039C78.1138 27.9969 77.9694 27.6359 77.9694 27.2206V11.0804C77.9694 10.6652 78.1138 10.3131 78.4027 10.0243C78.7096 9.71736 79.0887 9.5639 79.5401 9.5639C79.9734 9.5639 80.3344 9.71736 80.6233 10.0243C80.9302 10.3131 81.0837 10.6652 81.0837 11.0804ZM99.2588 24.4313V17.6611C99.2588 17.2458 99.4032 16.8938 99.692 16.6049C99.999 16.298 100.378 16.1445 100.829 16.1445C101.263 16.1445 101.624 16.298 101.913 16.6049C102.22 16.8938 102.373 17.2458 102.373 17.6611V27.2206C102.373 27.6359 102.22 27.9969 101.913 28.3039C101.624 28.5927 101.254 28.7372 100.802 28.7372C100.351 28.7372 99.9809 28.5837 99.692 28.2768C99.4032 27.9699 99.2588 27.5546 99.2588 27.0311C98.2838 28.2226 96.984 28.8184 95.3591 28.8184C94.0592 28.8184 93.0211 28.3851 92.2448 27.5185C91.4685 26.6519 91.0803 25.4062 91.0803 23.7814V17.6611C91.0803 17.2458 91.2248 16.8938 91.5136 16.6049C91.8205 16.298 92.1997 16.1445 92.651 16.1445C93.0843 16.1445 93.4454 16.298 93.7343 16.6049C94.0412 16.8938 94.1946 17.2458 94.1946 17.6611V23.1314C94.1946 24.991 94.9709 25.9207 96.5236 25.9207C97.5888 25.9207 98.5005 25.4243 99.2588 24.4313ZM114.645 28.5205H106.737C106.051 28.5205 105.591 28.2316 105.356 27.6539C105.121 27.0762 105.311 26.4263 105.925 25.7041L111.747 19.2589H107.089C106.692 19.2589 106.349 19.1144 106.06 18.8256C105.789 18.5367 105.654 18.1937 105.654 17.7965C105.654 17.3993 105.789 17.0563 106.06 16.7674C106.349 16.4785 106.692 16.3341 107.089 16.3341H114.672C115.123 16.3341 115.484 16.4695 115.755 16.7403C116.026 17.0111 116.161 17.3542 116.161 17.7694C116.161 18.2208 115.945 18.6811 115.512 19.1505L109.689 25.6229H114.645C115.042 25.6229 115.376 25.7673 115.647 26.0561C115.936 26.327 116.08 26.661 116.08 27.0581C116.08 27.4553 115.936 27.7984 115.647 28.0872C115.376 28.3761 115.042 28.5205 114.645 28.5205ZM126.403 21.2899V21.2358C126.403 20.4594 126.15 19.8366 125.644 19.3672C125.139 18.8797 124.462 18.636 123.613 18.636C121.844 18.636 120.779 19.5206 120.418 21.2899H126.403ZM128.298 23.3751H120.526C120.652 24.2598 121.041 24.9549 121.691 25.4604C122.359 25.9659 123.189 26.2186 124.182 26.2186C124.994 26.2186 125.753 26.0652 126.457 25.7583C126.728 25.6319 126.962 25.5687 127.161 25.5687C127.558 25.5687 127.883 25.7583 128.136 26.1374C128.262 26.336 128.325 26.5346 128.325 26.7332C128.325 27.1845 128.118 27.5366 127.703 27.7893C126.529 28.4754 125.247 28.8184 123.857 28.8184C121.907 28.8184 120.328 28.2316 119.118 27.0581C117.908 25.9027 117.303 24.3591 117.303 22.4273C117.303 20.6039 117.89 19.0783 119.064 17.8506C120.219 16.641 121.781 16.0362 123.749 16.0362C125.374 16.0362 126.737 16.5598 127.838 17.6069C128.957 18.6721 129.517 20.0352 129.517 21.6961V22.2648C129.427 23.005 129.02 23.3751 128.298 23.3751ZM135.351 17.6611C136.308 16.632 137.581 16.1175 139.17 16.1175C140.054 16.1175 140.803 16.298 141.417 16.6591C142.049 17.0021 142.483 17.4715 142.717 18.0673C143.71 16.7674 145.082 16.1175 146.833 16.1175C149.433 16.1175 150.733 17.5979 150.733 20.5587V27.2206C150.733 27.6359 150.58 27.9969 150.273 28.3039C149.984 28.5927 149.623 28.7372 149.19 28.7372C148.738 28.7372 148.359 28.5927 148.052 28.3039C147.763 27.9969 147.619 27.6359 147.619 27.2206V21.3712C147.619 19.8185 146.924 19.0422 145.534 19.0422C144.342 19.0422 143.503 19.5116 143.015 20.4504C143.015 20.4865 143.015 20.6309 143.015 20.8837C143.033 21.1184 143.042 21.2719 143.042 21.3441V27.2206C143.042 27.6359 142.889 27.9969 142.582 28.3039C142.293 28.5927 141.932 28.7372 141.499 28.7372C141.047 28.7372 140.668 28.5927 140.361 28.3039C140.072 27.9969 139.928 27.6359 139.928 27.2206V21.1545C139.928 20.5046 139.747 19.99 139.386 19.6109C139.043 19.2318 138.547 19.0422 137.897 19.0422C136.759 19.0422 135.911 19.4755 135.351 20.3421V27.2206C135.351 27.6359 135.198 27.9969 134.891 28.3039C134.602 28.5927 134.241 28.7372 133.808 28.7372C133.356 28.7372 132.977 28.5927 132.67 28.3039C132.381 27.9969 132.237 27.6359 132.237 27.2206V17.8506C132.237 17.3271 132.381 16.9118 132.67 16.6049C132.959 16.298 133.347 16.1445 133.835 16.1445C134.268 16.1445 134.629 16.289 134.918 16.5778C135.207 16.8487 135.351 17.2097 135.351 17.6611ZM157.011 11.0804V17.0924C157.895 16.3883 158.969 16.0362 160.233 16.0362C162.003 16.0362 163.42 16.6049 164.485 17.7423C165.514 18.8978 166.029 20.3962 166.029 22.2377C166.029 24.2417 165.406 25.8395 164.16 27.0311C162.878 28.2226 161.181 28.8184 159.069 28.8184C157.769 28.8184 156.496 28.5837 155.25 28.1143C154.348 27.7532 153.896 27.1033 153.896 26.1645V11.0804C153.896 10.6652 154.041 10.3131 154.33 10.0243C154.637 9.71736 155.016 9.5639 155.467 9.5639C155.9 9.5639 156.261 9.71736 156.55 10.0243C156.857 10.3131 157.011 10.6652 157.011 11.0804ZM157.011 20.1254V25.2979C157.679 25.7131 158.419 25.9207 159.231 25.9207C160.26 25.9207 161.091 25.6138 161.723 25C162.373 24.3681 162.698 23.5196 162.698 22.4544C162.698 21.3531 162.4 20.4955 161.804 19.8817C161.208 19.2679 160.441 18.961 159.502 18.961C158.509 18.961 157.679 19.3491 157.011 20.1254ZM167.947 24.9458C167.947 23.6821 168.353 22.7071 169.166 22.0211C169.978 21.335 171.053 20.992 172.389 20.992C173.49 20.992 174.411 21.2538 175.151 21.7774V21.3982C175.151 20.4414 174.97 19.7463 174.609 19.313C174.266 18.8617 173.688 18.636 172.876 18.636C172.154 18.636 171.522 18.7263 170.98 18.9068C170.71 18.979 170.502 19.0151 170.357 19.0151C169.87 19.0151 169.518 18.7985 169.301 18.3652C169.229 18.2207 169.193 18.0492 169.193 17.8506C169.193 17.309 169.491 16.9209 170.087 16.6862C171.08 16.2529 172.118 16.0362 173.201 16.0362C174.898 16.0362 176.135 16.4515 176.911 17.2819C177.687 18.1124 178.076 19.3852 178.076 21.1003V27.3019C178.076 27.681 177.94 28.006 177.669 28.2768C177.398 28.5476 177.074 28.683 176.694 28.683C176.297 28.683 175.972 28.5476 175.719 28.2768C175.485 28.006 175.367 27.6539 175.367 27.2206C174.591 28.1955 173.391 28.683 171.766 28.683C170.61 28.683 169.68 28.349 168.976 27.681C168.29 26.995 167.947 26.0832 167.947 24.9458ZM175.151 24.9458V23.7001C174.645 23.3029 173.932 23.1043 173.011 23.1043C172.434 23.1043 171.964 23.2397 171.603 23.5105C171.242 23.7814 171.062 24.1515 171.062 24.6209C171.062 25.0542 171.224 25.4062 171.549 25.677C171.874 25.9298 172.289 26.0561 172.795 26.0561C173.842 26.0561 174.627 25.686 175.151 24.9458ZM183.489 17.2819L185.926 22.996C185.962 23.0863 186.161 23.673 186.522 24.7563C186.63 24.0883 186.775 23.4925 186.955 22.9689L188.824 17.309C189.058 16.5327 189.582 16.1445 190.394 16.1445C190.882 16.1445 191.27 16.289 191.559 16.5778C191.866 16.8487 192.019 17.2007 192.019 17.634C192.019 17.8868 191.965 18.1666 191.857 18.4735L187.903 28.5205C187.072 30.6689 186.314 32.1132 185.628 32.8534C184.96 33.5756 184.148 33.9367 183.191 33.9367C182.577 33.9367 182.044 33.8374 181.593 33.6388C181.015 33.386 180.726 32.9437 180.726 32.3118C180.726 31.9327 180.835 31.6168 181.051 31.364C181.286 31.1293 181.602 31.0119 181.999 31.0119C182.071 31.0119 182.216 31.021 182.433 31.039C182.667 31.0571 182.812 31.0661 182.866 31.0661H183.028C183.66 31.03 184.22 30.3981 184.707 29.1704L184.978 28.5205L180.374 18.5818C180.248 18.311 180.185 18.0492 180.185 17.7965C180.185 17.3271 180.347 16.9389 180.672 16.632C181.015 16.307 181.467 16.1445 182.026 16.1445C182.658 16.1445 183.146 16.5237 183.489 17.2819ZM202.277 21.2899V21.2358C202.277 20.4594 202.024 19.8366 201.518 19.3672C201.013 18.8797 200.336 18.636 199.487 18.636C197.718 18.636 196.653 19.5206 196.292 21.2899H202.277ZM204.172 23.3751H196.4C196.527 24.2598 196.915 24.9549 197.565 25.4604C198.233 25.9659 199.063 26.2186 200.056 26.2186C200.869 26.2186 201.627 26.0652 202.331 25.7583C202.602 25.6319 202.836 25.5687 203.035 25.5687C203.432 25.5687 203.757 25.7583 204.01 26.1374C204.136 26.336 204.199 26.5346 204.199 26.7332C204.199 27.1845 203.992 27.5366 203.577 27.7893C202.403 28.4754 201.121 28.8184 199.731 28.8184C197.781 28.8184 196.202 28.2316 194.992 27.0581C193.782 25.9027 193.178 24.3591 193.178 22.4273C193.178 20.6039 193.764 19.0783 194.938 17.8506C196.093 16.641 197.655 16.0362 199.623 16.0362C201.248 16.0362 202.611 16.5598 203.712 17.6069C204.831 18.6721 205.391 20.0352 205.391 21.6961V22.2648C205.301 23.005 204.895 23.3751 204.172 23.3751ZM209.772 17.2819L211.613 21.5607C211.992 22.4093 212.299 23.33 212.534 24.323C212.787 23.2939 213.085 22.3551 213.428 21.5066L215.215 17.1195C215.486 16.4695 215.973 16.1445 216.677 16.1445C217.093 16.1445 217.436 16.289 217.706 16.5778C217.995 16.8667 218.14 17.2097 218.14 17.6069C218.14 17.8416 218.104 18.0312 218.031 18.1756L213.969 27.6268C213.662 28.367 213.148 28.7372 212.426 28.7372C211.722 28.7372 211.189 28.367 210.828 27.6268L206.685 18.5547C206.576 18.302 206.522 18.0492 206.522 17.7965C206.522 17.309 206.676 16.9118 206.982 16.6049C207.307 16.298 207.732 16.1445 208.255 16.1445C208.941 16.1445 209.447 16.5237 209.772 17.2819ZM85.7416 41.2859C85.1458 41.0693 84.541 40.961 83.9272 40.961C83.0425 40.961 82.2572 41.2769 81.5711 41.9088C80.8851 42.5587 80.5421 43.3982 80.5421 44.4273C80.5421 45.4564 80.8851 46.2959 81.5711 46.9458C82.2572 47.5958 83.0877 47.9207 84.0626 47.9207C84.8389 47.9207 85.5069 47.7583 86.0666 47.4333C86.4096 47.2166 86.7707 47.1083 87.1498 47.1083C87.565 47.1083 87.9261 47.2979 88.233 47.677C88.4136 47.9117 88.5038 48.1825 88.5038 48.4894C88.5038 48.9769 88.2872 49.3831 87.8539 49.7081C86.8429 50.4483 85.5249 50.8184 83.9001 50.8184C81.8961 50.8184 80.2803 50.2316 79.0526 49.0581C77.825 47.8846 77.2111 46.341 77.2111 44.4273C77.2111 42.6039 77.8069 41.0873 78.9985 39.8777C80.19 38.6501 81.6975 38.0362 83.521 38.0362C84.9472 38.0362 86.0936 38.2529 86.9602 38.6862C87.6102 38.9931 87.9351 39.4264 87.9351 39.986C87.9351 40.1666 87.872 40.3923 87.7456 40.6631C87.4748 41.1866 87.0595 41.4484 86.4999 41.4484C86.2652 41.4484 86.0124 41.3943 85.7416 41.2859ZM91.2707 49.004C90.0431 47.8124 89.4292 46.2869 89.4292 44.4273C89.4292 42.5858 90.0431 41.0512 91.2707 39.8236C92.4984 38.632 94.0962 38.0362 96.0641 38.0362C98.068 38.0362 99.6748 38.632 100.884 39.8236C102.094 41.0332 102.699 42.5678 102.699 44.4273C102.699 46.2869 102.094 47.8124 100.884 49.004C99.6748 50.2136 98.068 50.8184 96.0641 50.8184C94.0781 50.8184 92.4804 50.2136 91.2707 49.004ZM93.708 41.9359C93.0761 42.5858 92.7602 43.4163 92.7602 44.4273C92.7602 45.4383 93.0671 46.2778 93.6809 46.9458C94.3128 47.5958 95.1072 47.9207 96.0641 47.9207C97.039 47.9207 97.8333 47.5958 98.4472 46.9458C99.0791 46.2959 99.395 45.4564 99.395 44.4273C99.395 43.4163 99.0791 42.5858 98.4472 41.9359C97.8153 41.2859 97.0209 40.961 96.0641 40.961C95.1253 40.961 94.3399 41.2859 93.708 41.9359ZM106.992 38.1445C107.425 38.1445 107.786 38.28 108.075 38.5508C108.364 38.8216 108.508 39.1465 108.508 39.5257C109.393 38.5869 110.557 38.1175 112.002 38.1175C115.342 38.1175 117.012 39.8687 117.012 43.3712V49.2206C117.012 49.6359 116.858 49.9969 116.551 50.3039C116.263 50.5927 115.901 50.7372 115.468 50.7372C115.017 50.7372 114.638 50.5927 114.331 50.3039C114.042 49.9969 113.897 49.6359 113.897 49.2206V43.9128C113.897 41.9991 112.986 41.0422 111.162 41.0422C110.169 41.0422 109.285 41.4304 108.508 42.2067V49.2206C108.508 49.6359 108.355 49.9969 108.048 50.3039C107.759 50.5927 107.398 50.7372 106.965 50.7372C106.513 50.7372 106.134 50.5927 105.827 50.3039C105.538 49.9969 105.394 49.6359 105.394 49.2206V39.8506C105.394 39.3271 105.538 38.9118 105.827 38.6049C106.116 38.298 106.504 38.1445 106.992 38.1445ZM119.365 48.3811C119.365 48.0561 119.455 47.8034 119.636 47.6229C119.907 47.2979 120.232 47.1354 120.611 47.1354C120.9 47.1354 121.198 47.2347 121.504 47.4333C122.353 47.9569 123.292 48.2186 124.321 48.2186C124.808 48.2186 125.196 48.1193 125.485 47.9207C125.774 47.7222 125.919 47.4423 125.919 47.0812C125.919 46.5216 125.151 46.0251 123.617 45.5918C123.003 45.4293 122.497 45.2758 122.1 45.1314C121.721 44.987 121.288 44.7794 120.8 44.5086C120.313 44.2197 119.943 43.8496 119.69 43.3982C119.455 42.9288 119.338 42.3782 119.338 41.7463C119.338 40.6089 119.753 39.7062 120.584 39.0382C121.414 38.3702 122.488 38.0362 123.806 38.0362C125.233 38.0362 126.469 38.3431 127.516 38.957C127.95 39.2278 128.166 39.5798 128.166 40.0131C128.166 40.2298 128.112 40.4374 128.004 40.636C127.751 41.0512 127.39 41.2589 126.921 41.2589C126.686 41.2589 126.442 41.2047 126.189 41.0964C125.467 40.7894 124.727 40.636 123.969 40.636C123.535 40.636 123.174 40.7443 122.886 40.961C122.597 41.1596 122.452 41.4033 122.452 41.6921C122.452 41.9088 122.533 42.1074 122.696 42.2879C122.858 42.4504 123.093 42.6039 123.4 42.7483C123.725 42.8747 124.041 42.983 124.348 43.0733C124.673 43.1635 125.07 43.2809 125.539 43.4253C126.009 43.5517 126.397 43.669 126.704 43.7774C127.39 44.0301 127.95 44.4273 128.383 44.9689C128.816 45.5105 129.033 46.1605 129.033 46.9188C129.033 48.1103 128.582 49.0581 127.679 49.7622C126.794 50.4663 125.603 50.8184 124.104 50.8184C122.389 50.8184 120.981 50.358 119.88 49.4373C119.537 49.1484 119.365 48.7964 119.365 48.3811ZM139.563 46.4313V39.6611C139.563 39.2458 139.707 38.8938 139.996 38.6049C140.303 38.298 140.682 38.1445 141.133 38.1445C141.567 38.1445 141.928 38.298 142.217 38.6049C142.524 38.8938 142.677 39.2458 142.677 39.6611V49.2206C142.677 49.6359 142.524 49.9969 142.217 50.3039C141.928 50.5927 141.558 50.7372 141.106 50.7372C140.655 50.7372 140.285 50.5837 139.996 50.2768C139.707 49.9699 139.563 49.5546 139.563 49.0311C138.588 50.2226 137.288 50.8184 135.663 50.8184C134.363 50.8184 133.325 50.3851 132.549 49.5185C131.772 48.6519 131.384 47.4062 131.384 45.7814V39.6611C131.384 39.2458 131.529 38.8938 131.818 38.6049C132.124 38.298 132.504 38.1445 132.955 38.1445C133.388 38.1445 133.749 38.298 134.038 38.6049C134.345 38.8938 134.499 39.2458 134.499 39.6611V45.1314C134.499 46.991 135.275 47.9207 136.828 47.9207C137.893 47.9207 138.804 47.4243 139.563 46.4313ZM149.262 33.0804V45.8897C149.262 47.1715 149.641 47.8124 150.399 47.8124H150.86C151.149 47.8124 151.356 47.8395 151.483 47.8937C151.988 48.0742 152.241 48.4443 152.241 49.004C152.241 50.1594 151.257 50.7372 149.289 50.7372C147.195 50.7372 146.148 49.5456 146.148 47.1625V33.0804C146.148 32.6652 146.292 32.3131 146.581 32.0243C146.888 31.7174 147.267 31.5639 147.718 31.5639C148.152 31.5639 148.513 31.7174 148.802 32.0243C149.108 32.3131 149.262 32.6652 149.262 33.0804ZM159.927 47.7583C160.306 47.7583 160.604 47.8846 160.821 48.1374C161.055 48.3721 161.173 48.661 161.173 49.004C161.173 49.5456 160.893 49.9608 160.333 50.2497C159.611 50.6108 158.754 50.7913 157.761 50.7913C156.443 50.7913 155.477 50.3941 154.863 49.5998C154.267 48.7873 153.969 47.5506 153.969 45.8897V36.4655C153.969 36.0503 154.114 35.6982 154.403 35.4094C154.71 35.1025 155.089 34.949 155.54 34.949C155.973 34.949 156.334 35.1025 156.623 35.4094C156.93 35.6982 157.084 36.0503 157.084 36.4655V38.3341H159.494C159.909 38.3341 160.261 38.4785 160.55 38.7674C160.857 39.0563 161.01 39.3993 161.01 39.7965C161.01 40.1937 160.857 40.5367 160.55 40.8256C160.261 41.1144 159.909 41.2589 159.494 41.2589H157.084V45.7001C157.084 47.1625 157.553 47.8937 158.492 47.8937C158.69 47.8937 158.961 47.8756 159.304 47.8395C159.665 47.7853 159.873 47.7583 159.927 47.7583ZM167.203 39.6611V49.2206C167.203 49.6359 167.05 49.9969 166.743 50.3039C166.454 50.5927 166.093 50.7372 165.66 50.7372C165.208 50.7372 164.829 50.5927 164.522 50.3039C164.233 49.9969 164.089 49.6359 164.089 49.2206V39.6611C164.089 39.2458 164.233 38.8938 164.522 38.6049C164.829 38.298 165.208 38.1445 165.66 38.1445C166.093 38.1445 166.454 38.298 166.743 38.6049C167.05 38.8938 167.203 39.2458 167.203 39.6611ZM165.714 32.1326C166.201 32.1326 166.616 32.3041 166.959 32.6471C167.321 32.9902 167.501 33.4235 167.501 33.947C167.501 34.5247 167.321 34.9941 166.959 35.3552C166.616 35.7163 166.201 35.8968 165.714 35.8968C165.154 35.8968 164.685 35.7163 164.306 35.3552C163.944 34.9941 163.764 34.5247 163.764 33.947C163.764 33.4054 163.944 32.9721 164.306 32.6471C164.685 32.3041 165.154 32.1326 165.714 32.1326ZM172.737 38.1445C173.17 38.1445 173.531 38.28 173.82 38.5508C174.109 38.8216 174.254 39.1465 174.254 39.5257C175.138 38.5869 176.303 38.1175 177.747 38.1175C181.087 38.1175 182.757 39.8687 182.757 43.3712V49.2206C182.757 49.6359 182.603 49.9969 182.297 50.3039C182.008 50.5927 181.647 50.7372 181.213 50.7372C180.762 50.7372 180.383 50.5927 180.076 50.3039C179.787 49.9969 179.643 49.6359 179.643 49.2206V43.9128C179.643 41.9991 178.731 41.0422 176.907 41.0422C175.914 41.0422 175.03 41.4304 174.254 42.2067V49.2206C174.254 49.6359 174.1 49.9969 173.793 50.3039C173.504 50.5927 173.143 50.7372 172.71 50.7372C172.259 50.7372 171.879 50.5927 171.573 50.3039C171.284 49.9969 171.139 49.6359 171.139 49.2206V39.8506C171.139 39.3271 171.284 38.9118 171.573 38.6049C171.861 38.298 172.25 38.1445 172.737 38.1445ZM190.364 47.5687C190.364 47.8214 190.445 48.0291 190.608 48.1916C192.557 48.1916 194.11 48.5346 195.266 49.2206C196.421 49.9067 196.999 50.8906 196.999 52.1724C196.999 53.4543 196.421 54.4382 195.266 55.1243C194.128 55.8103 192.594 56.1533 190.662 56.1533C188.712 56.1533 187.168 55.8103 186.031 55.1243C184.894 54.4563 184.325 53.4723 184.325 52.1724C184.325 51.2156 184.677 50.4212 185.381 49.7893C186.085 49.1394 187.051 48.679 188.279 48.4082C188.134 48.1554 188.062 47.8756 188.062 47.5687C188.062 47.2257 188.152 46.9368 188.333 46.7021C187.43 46.341 186.717 45.7994 186.193 45.0773C185.688 44.337 185.435 43.5156 185.435 42.6129C185.435 41.3491 185.914 40.2659 186.87 39.3632C187.809 38.4785 189.064 38.0362 190.635 38.0362C191.808 38.0362 192.846 38.3251 193.749 38.9028L196.213 38.3612C196.268 38.3431 196.367 38.3341 196.511 38.3341C196.8 38.3341 197.053 38.4244 197.269 38.6049C197.504 38.7674 197.658 38.9931 197.73 39.2819C197.748 39.3181 197.757 39.3993 197.757 39.5257C197.757 39.8145 197.667 40.0763 197.486 40.311C197.306 40.5457 197.071 40.6902 196.782 40.7443L195.509 41.0422C195.708 41.5838 195.807 42.1074 195.807 42.6129C195.807 43.8767 195.329 44.9418 194.372 45.8084C193.397 46.675 192.115 47.1083 190.526 47.1083C190.418 47.2166 190.364 47.3701 190.364 47.5687ZM187.222 52.1724C187.222 52.6418 187.52 53.0029 188.116 53.2557C188.73 53.5265 189.579 53.6619 190.662 53.6619C192.937 53.6619 194.074 53.1654 194.074 52.1724C194.074 51.7211 193.776 51.36 193.18 51.0892C192.585 50.8184 191.745 50.683 190.662 50.683C189.597 50.683 188.757 50.8184 188.143 51.0892C187.529 51.36 187.222 51.7211 187.222 52.1724ZM188.983 41.1505C188.586 41.6019 188.378 42.0984 188.36 42.64C188.342 43.1635 188.549 43.6329 188.983 44.0482C189.416 44.4634 189.967 44.644 190.635 44.5898C191.303 44.5898 191.844 44.4093 192.26 44.0482C192.693 43.6871 192.909 43.2087 192.909 42.6129C192.909 41.9991 192.702 41.5026 192.287 41.1234C191.871 40.7443 191.321 40.5547 190.635 40.5547C189.931 40.5547 189.38 40.7533 188.983 41.1505Z" fill="black"/>
<path d="M45.9039 42.773C38.9291 42.773 33.3331 37.177 33.3331 30.2021H0C9.81339 30.2021 15.0039 45.3683 27.3315 53.9651C41.6866 53.8029 51.3378 46.4226 53.6087 40.421L53.4465 40.2588C51.3378 41.7998 48.7425 42.773 45.9039 42.773Z" fill="url(#paint0_linear_0_215)"/>
<path d="M45.9039 42.773C38.9291 42.773 33.3331 37.177 33.3331 30.2021H0C9.81339 30.2021 15.0039 45.3683 27.3315 53.9651C41.6866 53.8029 51.3378 46.4226 53.6087 40.421L53.4465 40.2588C51.3378 41.7998 48.7425 42.773 45.9039 42.773Z" fill="url(#paint1_linear_0_215)"/>
<path d="M27.3317 53.965C31.7923 57.128 37.2262 59.3989 44.201 59.7233C44.6876 59.7233 45.1742 59.8044 45.6608 59.8044C45.7419 59.8044 45.823 59.8044 45.9041 59.8044C45.9041 59.8044 45.9041 59.8044 45.9852 59.8044C46.1474 59.8044 46.3096 59.8044 46.4718 59.8044C46.7151 59.8044 47.0395 59.8044 47.2828 59.8044C47.6884 59.8044 48.0128 59.7233 48.4183 59.7233C48.4994 59.7233 48.4994 59.7233 48.5805 59.7233C55.6364 59.0745 61.9624 55.9926 66.7474 51.3698L53.6088 40.3398C51.2569 46.4225 41.6868 53.8028 27.3317 53.965Z" fill="url(#paint2_linear_0_215)"/>
<path d="M27.3317 53.965C31.7923 57.128 37.2262 59.3989 44.201 59.7233C44.6876 59.7233 45.1742 59.8044 45.6608 59.8044C45.7419 59.8044 45.823 59.8044 45.9041 59.8044C45.9041 59.8044 45.9041 59.8044 45.9852 59.8044C46.1474 59.8044 46.3096 59.8044 46.4718 59.8044C46.7151 59.8044 47.0395 59.8044 47.2828 59.8044C47.6884 59.8044 48.0128 59.7233 48.4183 59.7233C48.4994 59.7233 48.4994 59.7233 48.5805 59.7233C55.6364 59.0745 61.9624 55.9926 66.7474 51.3698L53.6088 40.3398C51.2569 46.4225 41.6868 53.8028 27.3317 53.965Z" fill="url(#paint3_linear_0_215)"/>
<path d="M45.9039 17.5495C38.9291 17.5495 33.3331 23.1456 33.3331 30.1204H0C9.81339 30.1204 15.0039 14.9543 27.3315 6.35742C41.6866 6.51963 51.3378 13.8999 53.6087 19.9015L53.4465 20.0637C51.3378 18.5228 48.7425 17.5495 45.9039 17.5495Z" fill="url(#paint4_linear_0_215)"/>
<path d="M45.9039 17.5495C38.9291 17.5495 33.3331 23.1456 33.3331 30.1204H0C9.81339 30.1204 15.0039 14.9543 27.3315 6.35742C41.6866 6.51963 51.3378 13.8999 53.6087 19.9015L53.4465 20.0637C51.3378 18.5228 48.7425 17.5495 45.9039 17.5495Z" fill="url(#paint5_linear_0_215)"/>
<path d="M27.3317 6.35788C31.7923 3.19489 37.2262 0.924019 44.201 0.599609C44.6876 0.599609 45.1742 0.599609 45.6608 0.599609C45.7419 0.599609 45.823 0.599609 45.9041 0.599609C45.9041 0.599609 45.9041 0.599609 45.9852 0.599609C46.1474 0.599609 46.3096 0.599609 46.4718 0.599609C46.7151 0.599609 47.0395 0.599609 47.2828 0.599609C47.6884 0.599609 48.0128 0.680712 48.4183 0.680712C48.4994 0.680712 48.4994 0.680712 48.5805 0.680712C55.6364 1.32953 61.9624 4.41142 66.7474 9.03426L53.6088 19.9831C51.2569 13.9004 41.6868 6.52008 27.3317 6.35788Z" fill="url(#paint6_linear_0_215)"/>
<path d="M27.3317 6.35788C31.7923 3.19489 37.2262 0.924019 44.201 0.599609C44.6876 0.599609 45.1742 0.599609 45.6608 0.599609C45.7419 0.599609 45.823 0.599609 45.9041 0.599609C45.9041 0.599609 45.9041 0.599609 45.9852 0.599609C46.1474 0.599609 46.3096 0.599609 46.4718 0.599609C46.7151 0.599609 47.0395 0.599609 47.2828 0.599609C47.6884 0.599609 48.0128 0.680712 48.4183 0.680712C48.4994 0.680712 48.4994 0.680712 48.5805 0.680712C55.6364 1.32953 61.9624 4.41142 66.7474 9.03426L53.6088 19.9831C51.2569 13.9004 41.6868 6.52008 27.3317 6.35788Z" fill="url(#paint7_linear_0_215)"/>
<defs>
<linearGradient id="paint0_linear_0_215" x1="26.8023" y1="53.9399" x2="26.8023" y2="30.1604" gradientUnits="userSpaceOnUse">
<stop stop-color="#C385FF"/>
<stop offset="1" stop-color="#8D55E5"/>
</linearGradient>
<linearGradient id="paint1_linear_0_215" x1="0.0144788" y1="42.086" x2="53.6119" y2="42.086" gradientUnits="userSpaceOnUse">
<stop stop-color="#FF691E"/>
<stop offset="1" stop-color="#BC5154"/>
</linearGradient>
<linearGradient id="paint2_linear_0_215" x1="27.305" y1="50.0386" x2="66.6788" y2="50.0386" gradientUnits="userSpaceOnUse">
<stop stop-color="#CC44B9"/>
<stop offset="0.2172" stop-color="#DE56D0"/>
<stop offset="0.4992" stop-color="#F068E7"/>
<stop offset="0.7661" stop-color="#FB72F4"/>
<stop offset="1" stop-color="#FF76F9"/>
</linearGradient>
<linearGradient id="paint3_linear_0_215" x1="27.3423" y1="50.074" x2="66.7498" y2="50.074" gradientUnits="userSpaceOnUse">
<stop stop-color="#FF9966"/>
<stop offset="1" stop-color="#FF5E62"/>
</linearGradient>
<linearGradient id="paint4_linear_0_215" x1="0" y1="18.27" x2="53.6046" y2="18.27" gradientUnits="userSpaceOnUse">
<stop stop-color="#C385FF"/>
<stop offset="1" stop-color="#8D55E5"/>
</linearGradient>
<linearGradient id="paint5_linear_0_215" x1="0.0144788" y1="18.2412" x2="53.6119" y2="18.2412" gradientUnits="userSpaceOnUse">
<stop stop-color="#FF691E"/>
<stop offset="1" stop-color="#BC5154"/>
</linearGradient>
<linearGradient id="paint6_linear_0_215" x1="27.305" y1="10.2819" x2="66.6788" y2="10.2819" gradientUnits="userSpaceOnUse">
<stop stop-color="#CC44B9"/>
<stop offset="0.2172" stop-color="#DE56D0"/>
<stop offset="0.4992" stop-color="#F068E7"/>
<stop offset="0.7661" stop-color="#FB72F4"/>
<stop offset="1" stop-color="#FF76F9"/>
</linearGradient>
<linearGradient id="paint7_linear_0_215" x1="27.3423" y1="10.2932" x2="66.7498" y2="10.2932" gradientUnits="userSpaceOnUse">
<stop stop-color="#FF9966"/>
<stop offset="1" stop-color="#FF5E62"/>
</linearGradient>
</defs>
</svg>
